<svg xmlns="http://www.w3.org/2000/svg" viewBox="-0.1 -0.100103 201.2 41.2">
	<path d="M4.12329 20.5H0V41H4.12329V20.5Z
M41.2376 0H37.1143V20.5H41.2376V0Z
M8.74959 -0.000102778L5.83398 2.89844L38.3265 35.2007L41.2421 32.3022L8.74959 -0.000102778Z
M2.91756 5.79873L0.00195312 8.69727L32.4945 40.9996L35.4101 38.101L2.91756 5.79873Z
M110.534 23.6012L110.432 23.4194L110.632 23.3645C112.74 22.7813 114.445 21.6488 115.707 19.9922C116.966 18.3441 117.599 16.3621 117.599 14.1013C117.599 12.0939 117.144 10.3191 116.247 8.81885C115.342 7.31864 114.054 6.14383 112.413 5.33245C110.759 4.50839 108.834 4.09003 106.674 4.09003H94.0791V36.8917H97.8963V24.1548H106.674L106.721 24.2435L113.578 36.8917H117.867L110.53 23.5969L110.534 23.6012ZM106.343 20.7064H97.9006V7.55529H106.394C108.574 7.55529 110.36 8.1596 111.694 9.34709C113.025 10.5388 113.697 12.1362 113.697 14.1013C113.697 16.0663 113.025 17.7144 111.694 18.9146C110.355 20.1021 108.557 20.7064 106.343 20.7064Z
M147.44 11.8652C146.113 9.40997 144.179 7.48295 141.697 6.13488C139.206 4.77835 136.226 4.09375 132.851 4.09375H123.163V36.8954H132.851C136.23 36.8954 139.206 36.2066 141.697 34.8543C144.179 33.5062 146.113 31.5708 147.44 29.0944C148.77 26.6222 149.446 23.7274 149.446 20.4904C149.446 17.2533 148.774 14.3247 147.44 11.861V11.8652ZM142.211 29.9311C139.992 32.2554 136.842 33.4344 132.851 33.4344H126.972V7.55479H132.851C136.88 7.55479 140.039 8.7296 142.232 11.037C144.43 13.3485 145.544 16.5307 145.544 20.4946C145.544 24.4585 144.426 27.5984 142.215 29.9311H142.211Z
M178.326 27.5905C178.326 29.4414 177.832 31.1149 176.859 32.5602C175.877 34.0181 174.487 35.1591 172.731 35.962C170.972 36.7692 168.923 37.1791 166.636 37.1791C164.081 37.1791 161.815 36.7143 159.902 35.7972C158.011 34.8887 156.519 33.5871 155.477 31.9305C154.449 30.3077 153.892 28.4948 153.769 26.3861H157.531C157.722 28.5878 158.648 30.3838 160.294 31.715C161.96 33.0757 164.107 33.7646 166.678 33.7646C168.986 33.7646 170.887 33.2532 172.319 32.2517C173.777 31.2248 174.513 29.788 174.513 27.975C174.513 26.6481 174.1 25.5705 173.293 24.7802C172.506 24.0196 171.473 23.4406 170.228 23.0603C169.012 22.7011 167.333 22.3419 165.233 21.9996C161.939 21.4291 159.286 20.4951 157.352 19.2316C155.443 17.9723 154.478 15.9015 154.478 13.0744C154.478 11.2234 154.933 9.63871 155.877 8.2188C156.812 6.80734 158.143 5.7086 159.83 4.9437C161.522 4.17036 163.494 3.77734 165.688 3.77734C168.005 3.77734 170.079 4.19994 171.852 5.03245C173.62 5.86495 175.04 7.04822 176.073 8.55265C177.067 10.0064 177.641 11.6925 177.79 13.5731H174.011C173.735 11.6841 172.842 10.1331 171.354 8.96679C169.832 7.78353 167.928 7.18345 165.688 7.18345C163.448 7.18345 161.628 7.67788 160.302 8.66252C158.963 9.64716 158.287 11.0544 158.287 12.8377C158.287 14.1478 158.691 15.1831 159.477 15.91C160.251 16.6369 161.263 17.1947 162.495 17.5623C163.698 17.9215 165.327 18.2723 167.469 18.6315C170.763 19.1893 173.433 20.1317 175.401 21.4206C177.339 22.6968 178.326 24.7718 178.326 27.5989V27.5905Z
M87.2861 4.09375V36.8954H83.5751V7.79144H65.5857V36.8954H61.8662V4.09375H87.2861Z
M192.775 20.5011C191.631 20.5011 190.556 20.2898 189.557 19.863C188.558 19.4362 187.678 18.8488 186.926 18.0966C186.173 17.3444 185.583 16.4738 185.157 15.4807C184.728 14.4919 184.516 13.4269 184.516 12.2901C184.516 11.1534 184.728 10.1053 185.157 9.11647C185.587 8.1276 186.173 7.25706 186.926 6.50484C187.678 5.75262 188.554 5.16522 189.557 4.74685C190.556 4.32848 191.631 4.11719 192.775 4.11719C193.918 4.11719 194.973 4.32848 195.967 4.74685C196.962 5.16522 197.838 5.75262 198.586 6.50484C199.338 7.25706 199.929 8.1276 200.354 9.11647C200.784 10.1053 200.996 11.1618 200.996 12.2901C200.996 13.4185 200.784 14.4919 200.354 15.4807C199.925 16.4696 199.334 17.3401 198.586 18.0966C197.833 18.8488 196.962 19.4404 195.967 19.863C194.973 20.2898 193.906 20.5011 192.775 20.5011ZM192.775 18.777C193.965 18.777 195.058 18.4854 196.048 17.898C197.039 17.3106 197.825 16.5288 198.407 15.5526C198.99 14.5764 199.283 13.4861 199.283 12.2901C199.283 11.0942 198.99 10.0081 198.407 9.02772C197.825 8.05153 197.034 7.26973 196.048 6.69078C195.058 6.11183 193.969 5.82024 192.775 5.82024C191.58 5.82024 190.475 6.11183 189.485 6.69078C188.494 7.26973 187.708 8.05153 187.117 9.02772C186.526 10.0039 186.233 11.0942 186.233 12.2901C186.233 13.4861 186.526 14.5721 187.117 15.5526C187.708 16.5288 188.499 17.3106 189.485 17.898C190.475 18.4854 191.572 18.777 192.775 18.777ZM189.948 16.2245V8.23747H193.472C194.19 8.23747 194.807 8.49103 195.33 8.99814C195.848 9.50525 196.116 10.1138 196.129 10.828C196.129 11.2759 195.997 11.7239 195.729 12.1634C195.461 12.6071 195.092 12.9367 194.62 13.1565L196.146 16.2287H194.654L193.281 13.3973H191.249V16.2287H189.948V16.2245ZM191.249 12.1718H193.455C193.804 12.1718 194.11 12.0408 194.382 11.7746C194.654 11.5083 194.79 11.1956 194.79 10.8237C194.79 10.4096 194.65 10.08 194.365 9.83065C194.08 9.58555 193.778 9.45877 193.455 9.45877H191.249V12.1676V12.1718Z" stroke="#FF0000" stroke-width="0.1" fill="#000"/>
</svg>